# xmcd
#
# Track frame offsets:
#	150
#	12837
#	25380
#	36572
#	48602
#	59650
#	76350
#	88955
#	99322
#	112745
#	124615
#	137135
#
# Disc length: 2053 seconds
#
# Revision: 1
# Processed by: cddbd v1.5.2PL0 Copyright (c) Steve Scherf et al.
# Submitted via: audiograbber 1.83.01
#
DISCID=a108030c
DTITLE=Hank Snow - Greatest Hits
DYEAR=2001
DGENRE=Country
TTITLE0=I'm Movin' On
TTITLE1=The Rhumba Boogie
TTITLE2=(Now And Then, There's) A Fool Such As I
TTITLE3=I Went To Your Wedding
TTITLE4=Let Me Go, Lover
TTITLE5=Who Will Answer
TTITLE6=The Golden Rocket
TTITLE7=The Gold Rush Is Over
TTITLE8=I Don't Hurt Anymore
TTITLE9=Miller's Cave
TTITLE10=Hello Love
TTITLE11=I'm Still Movin' On
EXTD=
EXTT0=
EXTT1=
EXTT2=
EXTT3=
EXTT4=
EXTT5=
EXTT6=
EXTT7=
EXTT8=
EXTT9=
EXTT10=
EXTT11=
PLAYORDER=
